<svg width="960" height="960" viewBox="0 0 960 960" xmlns="http://www.w3.org/2000/svg" role="img" aria-label="Nerdlet369 avatar">
  <defs>
    <linearGradient id="bg" x1="0" x2="1" y1="0" y2="1">
      <stop offset="0%" stop-color="#f3f4f7"/>
      <stop offset="100%" stop-color="#e4e6eb"/>
    </linearGradient>
    <linearGradient id="hair" x1="0" x2="1" y1="0" y2="1">
      <stop offset="0%" stop-color="#9098aa"/>
      <stop offset="100%" stop-color="#4a556a"/>
    </linearGradient>
    <linearGradient id="skin" x1="0" x2="0" y1="0" y2="1">
      <stop offset="0%" stop-color="#f3e3dd"/>
      <stop offset="100%" stop-color="#e7d6cf"/>
    </linearGradient>
    <filter id="soft" x="-20%" y="-20%" width="140%" height="140%">
      <feGaussianBlur stdDeviation="1.5"/>
    </filter>
  </defs>

  <rect width="960" height="960" fill="url(#bg)"/>

  <path d="M190 330 C210 180, 360 90, 500 100 C655 110, 790 220, 770 380 C755 500, 665 620, 480 610 C300 600, 170 520, 190 330 Z" fill="url(#hair)"/>
  <path d="M265 345 C270 250, 355 185, 480 185 C605 185, 685 250, 695 345 C703 442, 650 560, 480 598 C312 560, 255 442, 265 345 Z" fill="url(#skin)"/>

  <path d="M235 330 C245 220, 330 145, 435 132 C380 170, 355 220, 345 292 C320 338, 283 355, 235 330 Z" fill="url(#hair)"/>
  <path d="M402 130 C505 95, 620 125, 704 200 C658 195, 611 214, 556 265 C520 295, 475 316, 420 303 C375 291, 358 250, 402 130 Z" fill="url(#hair)"/>
  <path d="M665 215 C735 240, 785 302, 791 377 C748 355, 715 333, 679 309 C663 275, 656 248, 665 215 Z" fill="url(#hair)"/>

  <ellipse cx="395" cy="395" rx="48" ry="28" fill="#dce2ec"/>
  <ellipse cx="565" cy="395" rx="48" ry="28" fill="#dce2ec"/>
  <ellipse cx="401" cy="397" rx="18" ry="14" fill="#8291a9"/>
  <ellipse cx="560" cy="397" rx="18" ry="14" fill="#8291a9"/>
  <circle cx="408" cy="392" r="5" fill="#f3f5fb"/>
  <circle cx="567" cy="392" r="5" fill="#f3f5fb"/>
  <path d="M343 374 C362 352, 385 347, 420 357" stroke="#6a7486" stroke-width="7" fill="none" stroke-linecap="round"/>
  <path d="M538 357 C572 347, 597 352, 615 374" stroke="#6a7486" stroke-width="7" fill="none" stroke-linecap="round"/>

  <path d="M450 500 C474 510, 498 510, 520 500" stroke="#8f8080" stroke-width="5" fill="none" stroke-linecap="round"/>
  <ellipse cx="480" cy="465" rx="5" ry="8" fill="#bba8a2" filter="url(#soft)"/>

  <path d="M345 628 C400 672, 565 672, 620 628 C625 707, 584 785, 483 812 C381 785, 340 707, 345 628 Z" fill="#d7d8dd"/>
  <path d="M320 748 C390 704, 572 704, 645 748 C629 820, 570 864, 480 874 C392 864, 336 822, 320 748 Z" fill="#f0f0f1"/>
  <path d="M325 748 C377 718, 430 707, 482 707 C530 707, 587 718, 640 748" stroke="#c5c7cd" stroke-width="6" fill="none"/>
</svg>
